<svg id="Capa_1" enable-background="new 0 0 497 497" height="100" viewBox="0 0 497 497" width="100" xmlns="http://www.w3.org/2000/svg"><g><path d="m287 352-197 100h-81.749c-4.685 0-8.297 4.263-7.38 8.857 4.114 20.611 22.308 36.143 44.129 36.143h287z" fill="#ffd185"/><path d="m287 352v100c0 24.853 20.147 45 45 45h30v-145z" fill="#ffba48"/><path d="m422 0c-41.421 0-75 33.579-75 91v403.429c4.865 1.72 10.111 2.637 15.581 2.567 24.754-.315 44.419-21.018 44.419-45.774v-26.116c0-1.989-.79-3.897-2.197-5.303l-12.803-12.803 12.803-12.803c1.407-1.407 2.197-3.314 2.197-5.303v-343.894l45-45z" fill="#ffd185"/><path d="m135 0c-24.853 0-45 20.147-45 45v26.893c0 1.989.79 3.897 2.197 5.303l12.803 12.804-12.803 12.803c-1.407 1.407-2.197 3.314-2.197 5.304v23.787c0 1.989.79 3.897 2.197 5.303l12.803 12.803-12.803 12.803c-1.407 1.407-2.197 3.314-2.197 5.304v283.893h227c0 19.592 12.524 36.25 30 42.429 17.476-6.179 30-22.837 30-42.429v-30l-15-15 15-15v-347c0-24.853 20.147-45 45-45z" fill="#ffe8c2"/><path d="m452 0c-24.853 0-45 20.147-45 45h81.749c4.685 0 8.297-4.263 7.38-8.857-4.114-20.611-22.308-36.143-44.129-36.143z" fill="#ffba48"/><path d="m392 166h-30v120h30c43.181 0 81.087-22.352 102.559-56.005 1.551-2.43 1.551-5.56 0-7.99-21.472-33.652-59.378-56.005-102.559-56.005z" fill="#db2116"/><path d="m180 166c-33.137 0-60 26.863-60 60h242v-60z" fill="#ff9a42"/><path d="m120 226c0 33.137 26.863 60 60 60h182v-60z" fill="#ff7a3c"/><path d="m362 166c-33.137 0-60 26.863-60 60s26.863 60 60 60c44.868 0 84.04-24.133 105-60-20.96-35.867-60.132-60-105-60z" fill="#ff3a2f"/><path d="m60 211h-33.75c-8.994 0-17.072 3.878-22.622 10.038-2.529 2.807-2.529 7.118 0 9.925 5.55 6.159 13.628 10.037 22.622 10.037h33.75l30-15z" fill="#696969"/><path d="m407 211h-30v30h30c8.284 0 15-6.716 15-15s-6.716-15-15-15z" fill="#ebebeb"/><path d="m392 226c0-8.284-6.716-15-15-15h-317v30h317c8.284 0 15-6.716 15-15z" fill="#fff"/></g></svg>
